<svg xmlns="http://www.w3.org/2000/svg" viewBox="0 1 1900 1090" width="32" height="32">
  <path d="M831.655 734.999H1068.26L1296.04 18H1900V57C1829.36 57 1771.61 113.342 1769.87 183.962L1767.77 268.785V822.204L1769.87 907.039C1771.61 977.659 1829.36 1034 1900 1034V1073H1437V1034C1507.64 1034 1565.39 977.659 1567.13 907.039L1569.38 816.153V327.929L1573.79 200.076H1429.77L1196.11 917.226H703.803L470.142 200.076H326.124L330.532 327.929V812.554L332.865 907.039C334.609 977.659 392.358 1034 463 1034V1073H0V1034C70.6415 1034 128.391 977.659 130.135 907.039L132.141 825.804V265.196L130.135 183.962C128.391 113.342 70.6417 57 0 57V18H603.872L831.655 734.999Z" fill="#3e448a"/>
</svg>
