<svg xmlns="http://www.w3.org/2000/svg" viewBox="0 0 3760 2389" width="32" height="32">
  <path fill-rule="evenodd" clip-rule="evenodd" d="M2830 39C2900.64 39 2958.39 95.3411 2960.13 165.961L2963 282V2107L2960.13 2223.04C2958.39 2293.66 2900.64 2350 2830 2350C2759.36 2350 2701.61 2293.66 2699.87 2223.04L2697.71 2135.57L2697.57 1593.06L2699.87 1499.96C2701.61 1429.34 2759.36 1373 2830 1373V1334H2225.77L1998.26 2051H1761.66L1533.87 1334H930V1373C1000.64 1373 1058.39 1429.34 1060.13 1499.96L1062.14 1581.2V2141.8L1060.13 2223.04C1058.39 2293.66 1000.64 2350 930 2350C859.358 2350 801.609 2293.66 799.865 2223.04L797 2107V282L799.865 165.961C801.609 95.3411 859.358 39 930 39C1000.64 39 1058.39 95.3417 1060.13 165.962L1062.14 247.196V807.804L1060.13 889.039C1058.39 959.659 1000.64 1016 930 1016V1055H1393V1016C1322.36 1016 1264.61 959.659 1262.87 889.039L1260.53 794.554V309.929L1256.12 182.076H1400.14L1633.8 899.226H2126.11L2359.77 182.076H2503.79L2499.38 309.929V798.153L2497.13 889.039C2495.39 959.659 2437.64 1016 2367 1016V1055H2830V1016C2759.36 1016 2701.61 959.659 2699.87 889.039L2697.77 804.204V250.785L2699.87 165.962C2701.61 95.3417 2759.36 39 2830 39ZM2963 0H2830H2226.04L1998.26 716.999H1761.66L1533.87 0H930H797H598H465H332H133H0V39C70.6416 39 128.391 95.3411 130.135 165.961L133 282V2107L130.135 2223.04C128.391 2293.66 70.6416 2350 0 2350V2389H133H332H465H598H797H930H1393V2350C1322.36 2350 1264.61 2293.66 1262.87 2223.04L1260.53 2128.55V1643.93L1256.12 1516.08H1400.14L1633.8 2233.23H2126.11L2359.77 1516.08H2503.79L2499.38 1643.93V2132.15L2497.13 2223.04C2495.39 2293.66 2437.64 2350 2367 2350V2389H2830H2963H3162H3295H3428H3627H3760V2350C3689.36 2350 3631.61 2293.66 3629.87 2223.04L3627 2107V282L3629.87 165.961C3631.61 95.3411 3689.36 39 3760 39V0H3627H3428H3295H3162H2963ZM334.865 2223.04C336.609 2293.66 394.358 2350 465 2350C535.642 2350 593.391 2293.66 595.135 2223.04L598 2107V282L595.135 165.961C593.391 95.3411 535.642 39 465 39C394.358 39 336.609 95.3411 334.865 165.961L332 282V2107L334.865 2223.04ZM3295 2350C3224.36 2350 3166.61 2293.66 3164.87 2223.04L3162 2107V282L3164.87 165.961C3166.61 95.3411 3224.36 39 3295 39C3365.64 39 3423.39 95.3411 3425.13 165.961L3428 282V2107L3425.13 2223.04C3423.39 2293.66 3365.64 2350 3295 2350Z" fill="#3E448A"/>
</svg>
