<svg width="7815" height="2407" viewBox="0 0 7815 2407" fill="none" xmlns="http://www.w3.org/2000/svg">
<path d="M831.655 2069H1068.26L1295.77 1352H1900V1391C1829.36 1391 1771.61 1447.34 1769.87 1517.96L1767.57 1611.06L1767.71 2153.57L1769.87 2241.04C1771.61 2311.66 1829.36 2368 1900 2368V2407H1437V2368C1507.64 2368 1565.39 2311.66 1567.13 2241.04L1569.38 2150.15V1661.93L1573.79 1534.08H1429.77L1196.11 2251.23H703.803L470.142 1534.08H326.124L330.532 1661.93V2146.55L332.865 2241.04C334.609 2311.66 392.358 2368 463 2368V2407H0V2368C70.6415 2368 128.391 2311.66 130.135 2241.04L132.141 2159.8V1599.2L130.135 1517.96C128.391 1447.34 70.6417 1391 0 1391V1352H603.872L831.655 2069Z" fill="#3E448A"/>
<path d="M2258.29 2407H2058.42V1351.85H2258.29V2407Z" fill="#3E448A"/>
<path d="M3537.13 2224.77H3719.36L3714.95 2057.24V1351.85H3914.81V2407H3431.32L2896.4 1534.08H2715.64L2718.58 1701.61V2407H2520.19V1351.85H3003.68L3537.13 2224.77Z" fill="#3E448A"/>
<path fill-rule="evenodd" clip-rule="evenodd" d="M4949.01 1351.85C5225.29 1351.85 5431.03 1475.29 5431.03 1844.16V1917.63C5431.03 2226.24 5260.56 2407 4949.01 2407H4159.85V1351.85H4949.01ZM4358.24 2224.77H4960.76C5120.95 2224.77 5231.17 2116.03 5231.17 1907.35V1852.97C5231.17 1660.46 5131.23 1534.08 4962.23 1534.08H4358.24V2224.77Z" fill="#3E448A"/>
<path fill-rule="evenodd" clip-rule="evenodd" d="M2831.42 0.214844C3145.9 0.214844 3301.68 110.433 3301.68 548.364C3301.68 986.296 3145.9 1095.04 2831.42 1095.04H2453.74C2142.19 1095.04 1984.95 986.296 1984.95 548.364C1984.95 110.433 2142.19 0.214844 2453.74 0.214844H2831.42ZM2193.62 701.199C2217.14 871.669 2292.09 911.348 2453.74 911.348H2831.42C3035.69 911.348 3103.29 848.156 3103.29 548.364L3101.82 486.643L2193.62 701.199ZM2453.74 183.911C2252.41 183.911 2184.81 248.572 2184.81 548.364L2186.28 605.677L3094.47 391.12C3069.49 225.059 2993.07 183.911 2831.42 183.911H2453.74Z" fill="#3E448A"/>
<path d="M831.655 734.999H1068.26L1296.04 18H1900V57C1829.36 57 1771.61 113.342 1769.87 183.962L1767.77 268.785V822.204L1769.87 907.039C1771.61 977.659 1829.36 1034 1900 1034V1073H1437V1034C1507.64 1034 1565.39 977.659 1567.13 907.039L1569.38 816.153V327.929L1573.79 200.076H1429.77L1196.11 917.226H703.803L470.142 200.076H326.124L330.532 327.929V812.554L332.865 907.039C334.609 977.659 392.358 1034 463 1034V1073H0V1034C70.6415 1034 128.391 977.659 130.135 907.039L132.141 825.804V265.196L130.135 183.962C128.391 113.342 70.6417 57 0 57V18H603.872L831.655 734.999Z" fill="#3E448A"/>
<path fill-rule="evenodd" clip-rule="evenodd" d="M4310.38 17.8496C4586.66 17.8496 4792.4 141.294 4792.4 510.155V583.634C4792.4 892.243 4621.93 1073 4310.38 1073H3521.22V17.8496H4310.38ZM3719.61 890.773H4322.13C4482.32 890.773 4592.53 782.025 4592.53 573.347V518.973C4592.53 326.459 4492.6 200.076 4323.6 200.076H3719.61V890.773Z" fill="#3E448A"/>
<path fill-rule="evenodd" clip-rule="evenodd" d="M5779.08 17.8496C5983.35 17.8497 6208.2 58.9979 6208.2 338.216C6208.2 529.26 6105.33 623.312 5928.98 654.173L6219.96 1073H5981.89L5711.48 667.399H5210.36V1073H5011.97V17.8496H5779.08ZM5210.36 485.173H5802.6C5933.39 485.173 6009.81 466.068 6009.81 344.094C6009.81 219.181 5937.8 200.076 5802.6 200.076H5210.36V485.173Z" fill="#3E448A"/>
<path d="M7436.43 890.773H7618.65L7614.24 723.243V17.8496H7814.11V1073H7330.62L6795.69 200.076H6614.94L6617.88 367.607V1073H6419.48V17.8496H6902.97L7436.43 890.773Z" fill="#3E448A"/>
</svg>
